PathFileType	4	(X/Y/Z)	/Users/mathieubourgeois/Desktop/Analyse/Traitement/Sujet_05/Transformed_Static_Sujet_05_Tpose.trc
DataRate	CameraRate	NumFrames	NumMarkers	Units	OrigDataRate	OrigDataStartFrame	OrigNumFrames
120.000000	120.000000	5	36	mm	120.000000	174	232
Frame#	Time	RFHD			RANE			STRN			LANI			LKNE			T10			RHUM			RWRB			C7			LFWT			LTOE			RTOE			LWRA			LBWT			RBWT			RFWT			LKNI			RKNI			RKNE			LANE			RANI			LHEE			RHEE			LHUM			LRAD			RRAD			RWRA			LWRB			LFHD			LBHD			RBHD			RSHO			LSHO			CLAV			LCAR			RCAR			
		X1	Y1	Z1	X2	Y2	Z2	X3	Y3	Z3	X4	Y4	Z4	X5	Y5	Z5	X6	Y6	Z6	X7	Y7	Z7	X8	Y8	Z8	X9	Y9	Z9	X10	Y10	Z10	X11	Y11	Z11	X12	Y12	Z12	X13	Y13	Z13	X14	Y14	Z14	X15	Y15	Z15	X16	Y16	Z16	X17	Y17	Z17	X18	Y18	Z18	X19	Y19	Z19	X20	Y20	Z20	X21	Y21	Z21	X22	Y22	Z22	X23	Y23	Z23	X24	Y24	Z24	X25	Y25	Z25	X26	Y26	Z26	X27	Y27	Z27	X28	Y28	Z28	X29	Y29	Z29	X30	Y30	Z30	X31	Y31	Z31	X32	Y32	Z32	X33	Y33	Z33	X34	Y34	Z34	X35	Y35	Z35	X36	Y36	Z36	

175	1.45	-717.0733642578125	1631.611938476562	362.9903564453123	-822.883056640625	75.55298614501955	193.7628936767577	-630.4403076171875	1203.8564453125	373.1226196289061	-536.88525390625	83.63624572753908	227.4577026367187	-464.8991394042969	480.4642639160156	257.0596313476561	-644.041748046875	1205.145751953125	149.1938629150389	-1064.686767578125	1356.223388671875	227.8492889404295	-1300.359008789062	1431.1416015625	280.0030822753903	-642.97119140625	1435.266845703125	192.4904022216795	-512.5454711914062	929.6025390625	337.5476684570311	-472.5010070800782	34.29272842407229	385.6165161132812	-829.8099975585938	37.06167984008791	391.3331604003905	46.32195281982419	1371.689331054688	244.8906249999999	-583.5140380859375	958.1671752929688	166.7210388183592	-717.045654296875	958.8688354492188	171.9584503173827	-752.4773559570312	921.9671020507812	346.6663513183592	-568.1062622070312	445.9510192871094	246.3097229003905	-703.2688598632812	426.3799133300781	261.798126220703	-800.480712890625	476.1045227050781	262.9699401855467	-463.8862609863281	87.26299285888673	186.3712310791015	-747.3773193359375	74.01404571533205	239.6842193603515	-511.5425720214844	44.54083251953126	142.2335205078124	-771.9476928710938	38.23767852783204	147.535430908203	-208.4393768310547	1375.587768554688	202.3599395751952	-219.8833923339844	1327.434204101562	254.5603637695311	-1057.864868164062	1318.354614257812	289.0049743652342	-1312.583374023438	1361.900756835938	262.3109130859373	33.50399780273435	1440.982666015625	248.7901000976562	-568.64306640625	1644.759643554688	363.0623779296873	-555.336181640625	1575.022583007812	225.8504638671874	-690.73486328125	1567.910888671875	202.9193267822264	-791.1881103515625	1441.350219726562	241.7838134765623	-502.5423583984375	1440.83447265625	228.9640960693358	-640.5291748046875	1379.445190429688	325.4677124023436	117.9767837524414	1424.472290039062	218.1049194335937	-1393.875610351562	1407.399658203125	240.1150817871091	
176	1.458333333333333	-716.96533203125	1631.652221679688	362.9891967773435	-822.8790893554688	75.5553436279297	193.7505493164061	-630.425048828125	1203.859375	373.1585693359374	-536.904541015625	83.62969207763673	227.469985961914	-464.8995056152344	480.4671020507812	257.0899658203124	-644.0343017578125	1205.138916015625	149.245635986328	-1064.6513671875	1356.201416015625	227.8395996093748	-1300.357055664062	1431.110717773438	279.9757385253903	-642.9505004882812	1435.25244140625	192.5054473876951	-512.53369140625	929.5983276367188	337.5825805664061	-472.4944152832032	34.29443359375002	385.6118469238281	-829.799072265625	37.06064987182619	391.3388366699218	46.32650756835935	1371.699951171875	244.9140472412109	-583.5280151367188	958.1484375	166.7597503662108	-717.05126953125	958.8555908203125	172.0167541503905	-752.480712890625	921.9749145507812	346.7015380859373	-568.1051635742188	445.9440002441406	246.3437194824218	-703.2653198242188	426.3757019042969	261.8204345703124	-800.4739379882812	476.1073608398438	262.9810485839842	-463.88623046875	87.26750946044923	186.3663482666015	-747.3692016601562	74.02600860595705	239.680450439453	-511.5412902832031	44.53396606445313	142.2271881103515	-771.97119140625	38.2402572631836	147.537139892578	-208.4374084472657	1375.60498046875	202.3836975097655	-219.8680114746094	1327.435180664062	254.5738830566405	-1057.847412109375	1318.36962890625	289.0149536132811	-1312.54541015625	1361.874755859375	262.2648925781248	33.51687240600583	1440.973022460938	248.8056640624999	-568.5135498046875	1644.740112304688	363.0180664062498	-555.2973022460938	1574.990356445312	225.8088989257811	-690.7139282226562	1567.919311523438	202.9283905029295	-791.1658935546875	1441.359619140625	241.789840698242	-502.5284423828125	1440.8330078125	229.0010681152342	-640.5032348632812	1379.4453125	325.4980163574218	117.9791793823242	1424.484252929688	218.1232299804687	-1393.8662109375	1407.350341796875	240.0793762207029	
177	1.466666666666667	-716.86328125	1631.7080078125	362.9877014160154	-822.871826171875	75.55201721191408	193.7617797851561	-630.422607421875	1203.869384765625	373.1869506835936	-536.9014892578125	83.63191223144533	227.4618835449218	-464.8843688964844	480.4791564941406	257.1127319335936	-644.0368041992188	1205.124145507812	149.270065307617	-1064.626708984375	1356.188720703125	227.848205566406	-1300.338012695312	1431.095581054688	279.9265441894528	-642.9363403320312	1435.248168945312	192.5184936523436	-512.53271484375	929.59716796875	337.6004943847655	-472.4935913085938	34.30108261108401	385.6220703124999	-829.8060913085938	37.06262588500979	391.3366088867186	46.34452056884763	1371.71337890625	244.926773071289	-583.5137939453125	958.141357421875	166.7849884033202	-717.0394287109375	958.8633422851562	172.0350341796874	-752.4696044921875	921.9729614257812	346.734649658203	-568.106201171875	445.9490051269531	246.3746185302734	-703.2635498046875	426.3834533691406	261.8341064453124	-800.4796752929688	476.0992126464844	263.005889892578	-463.8875427246094	87.26153564453126	186.3719177246093	-747.3839721679688	74.00723266601564	239.7062683105468	-511.5547790527344	44.54409408569337	142.2364959716796	-771.9633178710938	38.25246047973634	147.5452575683593	-208.4268951416016	1375.596435546875	202.3991546630858	-219.8613433837891	1327.439819335938	254.5927734374999	-1057.819702148438	1318.375366210938	289.0325622558592	-1312.528564453125	1361.85693359375	262.2413330078123	33.52046203613278	1441.004638671875	248.8314208984374	-568.39599609375	1644.735473632812	362.9424438476561	-555.236572265625	1574.952392578125	225.7558288574217	-690.6853637695312	1567.93212890625	202.9223022460936	-791.1422729492188	1441.374267578125	241.7900543212889	-502.5220642089844	1440.833862304688	229.033477783203	-640.4866943359375	1379.451416015625	325.5139770507811	117.9847335815429	1424.511596679688	218.1577911376953	-1393.847534179688	1407.300659179688	240.0517578124997	
178	1.475	-716.7521362304688	1631.754516601562	362.9665222167966	-822.86962890625	75.55963134765626	193.7507324218749	-630.4094848632812	1203.866455078125	373.2244262695311	-536.8990478515625	83.63731384277345	227.4765472412109	-464.8970947265626	480.4742126464844	257.1505126953124	-644.0206298828125	1205.11279296875	149.2984466552733	-1064.599365234375	1356.178833007812	227.8430480957029	-1300.332885742188	1431.070922851562	279.9055480957028	-642.9124755859375	1435.233276367188	192.5402832031248	-512.5068359375	929.59521484375	337.6224365234374	-472.4947509765626	34.29877090454104	385.6156005859374	-829.8109741210938	37.06983566284182	391.3405456542968	46.33906555175778	1371.739135742188	244.9431915283202	-583.5299072265625	958.1265258789062	166.8321075439452	-717.0527954101562	958.849609375	172.0914764404295	-752.4645385742188	921.9690551757812	346.7733459472655	-568.1004028320312	445.9432983398438	246.3992919921874	-703.2529907226562	426.3717041015625	261.8460083007811	-800.4694213867188	476.0981750488281	263.012969970703	-463.8948974609375	87.26271057128908	186.3737335205078	-747.37109375	74.00020599365236	239.681427001953	-511.5444030761719	44.54443740844727	142.2291717529296	-771.9472045898438	38.24845504760743	147.5437927246093	-208.4243316650391	1375.620239257812	202.4149475097655	-219.855697631836	1327.456665039062	254.6085968017577	-1057.795776367188	1318.37548828125	289.048858642578	-1312.5087890625	1361.8408203125	262.2316589355466	33.50391769409177	1441.032836914062	248.8521118164062	-568.2725219726562	1644.718627929688	362.8761901855467	-555.1878051757812	1574.908569335938	225.7012329101561	-690.650390625	1567.94189453125	202.9375610351561	-791.1214599609375	1441.387573242188	241.7891998291014	-502.5137939453125	1440.826049804688	229.0579528808592	-640.4717407226562	1379.457641601562	325.5430603027343	117.9778442382812	1424.549072265625	218.1560516357421	-1393.824340820312	1407.258666992188	240.0296630859372	
179	1.483333333333333	-716.6397094726562	1631.819580078125	362.9696350097654	-822.8693237304688	75.56044769287111	193.7573242187499	-630.4020385742188	1203.8818359375	373.2570800781249	-536.8973999023438	83.64658355712892	227.4792785644531	-464.8787231445313	480.4779357910156	257.1598205566405	-644.0131225585938	1205.100830078125	149.3407897949217	-1064.578979492188	1356.178833007812	227.8422241210935	-1300.313598632812	1431.0556640625	279.8671264648435	-642.9135131835938	1435.241333007812	192.5496978759764	-512.507080078125	929.5970458984375	337.6627502441405	-472.4873657226563	34.29991149902346	385.6191711425781	-829.8046264648438	37.06638336181643	391.3368835449218	46.33881759643552	1371.775512695312	244.9659271240234	-583.501220703125	958.1200561523438	166.8514862060545	-717.0362548828125	958.8414916992188	172.1067047119139	-752.4659423828125	921.9652709960938	346.7936096191405	-568.0924072265625	445.94287109375	246.4050140380859	-703.2486572265625	426.3805236816406	261.8479614257811	-800.4583740234375	476.0918884277344	263.0299377441405	-463.880126953125	87.25948333740236	186.3798065185546	-747.3663330078125	74.01255798339845	239.682144165039	-511.5543212890625	44.54906463623048	142.2334747314453	-771.9520874023438	38.25903320312501	147.5417022705077	-208.430404663086	1375.623901367188	202.4444274902343	-219.8560333251953	1327.481689453125	254.6356353759764	-1057.762573242188	1318.384399414062	289.0512390136717	-1312.473022460938	1361.8251953125	262.1988830566404	33.5008735656738	1441.06201171875	248.8668975830077	-568.1475219726562	1644.7109375	362.8066101074217	-555.1331787109375	1574.862548828125	225.6598205566405	-690.608154296875	1567.944580078125	202.9271697998045	-791.0997924804688	1441.414184570312	241.8209991455076	-502.5093994140625	1440.83642578125	229.0799560546874	-640.4530639648438	1379.4638671875	325.5711669921874	117.982421875	1424.585083007812	218.1702575683593	-1393.816650390625	1407.228149414062	240.019836425781	
